<svg width="1025" height="1024" viewBox="0 0 1025 1024" fill="none" xmlns="http://www.w3.org/2000/svg">
<rect width="1024" height="1024" transform="translate(0.665436)" fill="black"/>
<path d="M463.349 504.478C465.815 504.478 467.671 505.143 468.918 506.473C470.192 507.775 470.83 509.881 470.83 512.79V527.585H464.222V514.327C464.222 512.693 463.972 511.474 463.474 510.67C463.003 509.839 462.282 509.423 461.313 509.423C459.927 509.423 458.958 510.005 458.403 511.169C457.849 512.333 457.572 514.009 457.572 516.198V527.585H450.923V514.327C450.923 513.247 450.812 512.346 450.59 511.626C450.396 510.906 450.092 510.365 449.676 510.005C449.26 509.617 448.706 509.423 448.014 509.423C447.072 509.423 446.324 509.714 445.769 510.296C445.243 510.878 444.869 511.723 444.647 512.831C444.426 513.939 444.315 515.297 444.315 516.904V527.585H437.665V504.893H442.694L443.65 507.803H443.899C444.315 507.027 444.827 506.403 445.437 505.932C446.074 505.434 446.795 505.074 447.598 504.852C448.429 504.603 449.316 504.478 450.258 504.478C451.809 504.478 453.112 504.755 454.164 505.309C455.245 505.835 456.09 506.667 456.7 507.803H457.074C457.739 506.639 458.625 505.794 459.733 505.267C460.869 504.741 462.075 504.478 463.349 504.478Z" fill="white"/>
<path d="M485.715 504.478C487.737 504.478 489.483 504.88 490.951 505.683C492.42 506.487 493.555 507.65 494.359 509.174C495.162 510.698 495.564 512.568 495.564 514.785V517.777H482.057C482.113 519.522 482.556 520.894 483.387 521.891C484.246 522.889 485.465 523.387 487.045 523.387C488.43 523.387 489.677 523.249 490.785 522.972C491.921 522.667 493.084 522.21 494.276 521.6V526.38C493.251 526.934 492.129 527.335 490.91 527.585C489.718 527.862 488.236 528 486.463 528C484.302 528 482.376 527.585 480.686 526.754C479.024 525.895 477.708 524.606 476.738 522.889C475.796 521.171 475.325 519.01 475.325 516.405C475.325 513.746 475.754 511.543 476.613 509.797C477.5 508.024 478.719 506.694 480.27 505.808C481.85 504.921 483.664 504.478 485.715 504.478ZM485.839 508.883C484.842 508.883 484.011 509.271 483.346 510.047C482.681 510.823 482.293 512.028 482.182 513.662H489.455C489.455 512.748 489.316 511.931 489.039 511.21C488.762 510.49 488.361 509.922 487.834 509.506C487.308 509.091 486.643 508.883 485.839 508.883Z" fill="white"/>
<path d="M509.938 523.055C510.603 523.055 511.212 522.986 511.766 522.847C512.348 522.708 512.944 522.542 513.553 522.348V526.961C512.861 527.238 512.043 527.474 511.101 527.668C510.187 527.889 509.107 528 507.86 528C506.53 528 505.339 527.779 504.286 527.335C503.261 526.892 502.457 526.13 501.875 525.05C501.293 523.941 501.003 522.418 501.003 520.478V509.548H498.301V506.93L501.543 504.852L503.371 500.073H507.652V504.893H513.304V509.548H507.652V520.478C507.652 521.337 507.86 521.988 508.275 522.431C508.691 522.847 509.245 523.055 509.938 523.055Z" fill="white"/>
<path d="M524.376 502.441C524.376 503.55 524.335 504.616 524.252 505.641C524.196 506.667 524.141 507.387 524.085 507.803H524.418C524.889 507.027 525.415 506.403 525.997 505.932C526.607 505.434 527.285 505.074 528.034 504.852C528.782 504.603 529.585 504.478 530.444 504.478C531.94 504.478 533.256 504.769 534.392 505.351C535.556 505.932 536.47 506.833 537.135 508.052C537.8 509.271 538.132 510.85 538.132 512.79V527.585H531.441V514.327C531.441 512.693 531.192 511.474 530.693 510.67C530.222 509.839 529.474 509.423 528.449 509.423C527.424 509.423 526.607 509.714 525.997 510.296C525.388 510.878 524.958 511.723 524.709 512.831C524.487 513.939 524.376 515.297 524.376 516.904V527.585H517.727V496H524.376V502.441Z" fill="white"/>
<path d="M563.755 516.198C563.755 518.082 563.505 519.758 563.007 521.226C562.536 522.695 561.843 523.941 560.929 524.967C560.014 525.964 558.892 526.726 557.562 527.252C556.26 527.751 554.792 528 553.157 528C551.633 528 550.22 527.751 548.918 527.252C547.616 526.726 546.494 525.964 545.552 524.967C544.637 523.941 543.917 522.695 543.391 521.226C542.892 519.758 542.643 518.082 542.643 516.198C542.643 513.676 543.072 511.557 543.931 509.839C544.79 508.093 546.009 506.764 547.588 505.849C549.167 504.935 551.065 504.478 553.282 504.478C555.332 504.478 557.133 504.935 558.684 505.849C560.264 506.764 561.497 508.093 562.383 509.839C563.297 511.557 563.755 513.676 563.755 516.198ZM549.417 516.198C549.417 517.694 549.541 518.954 549.791 519.979C550.068 520.977 550.483 521.739 551.038 522.265C551.619 522.764 552.354 523.013 553.24 523.013C554.154 523.013 554.875 522.764 555.401 522.265C555.955 521.739 556.357 520.977 556.606 519.979C556.856 518.954 556.98 517.694 556.98 516.198C556.98 514.701 556.856 513.455 556.606 512.457C556.357 511.46 555.942 510.712 555.36 510.213C554.806 509.714 554.085 509.465 553.199 509.465C551.841 509.465 550.871 510.033 550.289 511.169C549.708 512.277 549.417 513.953 549.417 516.198Z" fill="white"/>
<path d="M575.115 528C572.815 528 570.931 527.017 569.463 525.05C567.994 523.055 567.26 520.132 567.26 516.281C567.26 512.402 568.008 509.465 569.504 507.47C571 505.475 572.94 504.478 575.322 504.478C576.32 504.478 577.179 504.63 577.899 504.935C578.647 505.212 579.284 505.6 579.811 506.099C580.365 506.597 580.836 507.165 581.224 507.803H581.39C581.307 507.359 581.224 506.722 581.141 505.891C581.058 505.032 581.016 504.159 581.016 503.273V496H587.665V527.585H582.637L581.265 524.634H581.016C580.656 525.244 580.212 525.812 579.686 526.338C579.16 526.837 578.522 527.238 577.774 527.543C577.026 527.848 576.14 528 575.115 528ZM577.65 523.055C579.035 523.055 580.019 522.556 580.6 521.559C581.21 520.534 581.515 519.01 581.515 516.987V516.322C581.515 514.106 581.238 512.416 580.683 511.252C580.129 510.088 579.09 509.506 577.567 509.506C576.486 509.506 575.613 510.102 574.948 511.294C574.311 512.457 573.992 514.147 573.992 516.364C573.992 518.58 574.311 520.256 574.948 521.392C575.613 522.501 576.514 523.055 577.65 523.055Z" fill="white"/>
</svg>
